<svg width="56" height="54" viewBox="0 0 56 54" fill="none" xmlns="http://www.w3.org/2000/svg">
<path d="M55.8607 20.522C55.5457 19.5732 54.6663 18.902 53.6313 18.902H35.7532L30.2294 1.90133C29.9144 0.954453 29.0369 0.283203 28.0019 0.283203C27.7432 0.283203 27.4919 0.326328 27.2594 0.403203L27.2763 0.397578C26.5713 0.641328 26.0313 1.1982 25.8157 1.89758L25.8119 1.91445L25.7726 1.90133L20.2488 18.902H2.37256C1.07881 18.902 0.0288086 19.952 0.0288086 21.2457C0.0288086 22.022 0.407559 22.712 0.988809 23.1376L0.996309 23.1413L15.4582 33.647L9.93443 50.6495C9.86131 50.867 9.82006 51.1163 9.82006 51.3751C9.82006 52.6688 10.8701 53.7188 12.1638 53.7188C12.6813 53.7188 13.1594 53.552 13.5476 53.267L13.5401 53.2707L28.0038 42.7613L42.4657 53.2707C42.8463 53.5501 43.3244 53.717 43.8419 53.717C45.1376 53.717 46.1876 52.667 46.1876 51.3713C46.1876 51.1126 46.1463 50.8632 46.0676 50.6307L46.0732 50.6476L40.5476 33.6488L55.0132 23.1413C55.6019 22.7082 55.9788 22.0201 55.9788 21.242C55.9788 20.9851 55.9376 20.7357 55.8607 20.5051L55.8663 20.522H55.8607ZM36.4113 30.857C35.8226 31.2901 35.4457 31.9801 35.4457 32.7582C35.4457 33.0151 35.4869 33.2645 35.5638 33.497L35.5582 33.4801L39.3813 45.2382L29.3763 37.9688C29.0126 37.7157 28.5607 37.5657 28.0751 37.5657C28.0488 37.5657 28.0226 37.5657 27.9963 37.5676H28.0001V10.2132L31.8194 21.9732C32.1363 22.9201 33.0138 23.5913 34.0488 23.5913H46.4163L36.4113 30.857Z" fill="#BF9A7C"/>
</svg>
