<svg width="60" height="60" viewBox="0 0 60 60" fill="none" xmlns="http://www.w3.org/2000/svg">
<path fill-rule="evenodd" clip-rule="evenodd" d="M56.25 52.5C56.25 54.5625 54.57 56.25 52.5 56.25H7.5C5.43 56.25 3.75 54.5625 3.75 52.5V7.5C3.75 5.4375 5.43 3.75 7.5 3.75H52.5C54.57 3.75 56.25 5.4375 56.25 7.5V52.5ZM52.5 0H7.5C3.35812 0 0 3.35625 0 7.5V52.5C0 56.6438 3.35812 60 7.5 60H52.5C56.6419 60 60 56.6438 60 52.5V7.5C60 3.35625 56.6419 0 52.5 0ZM41.25 28.125H31.875V18.75C31.875 17.7187 31.035 16.875 30 16.875C28.965 16.875 28.125 17.7187 28.125 18.75V28.125H18.75C17.715 28.125 16.875 28.9687 16.875 30C16.875 31.0313 17.715 31.875 18.75 31.875H28.125V41.25C28.125 42.2813 28.965 43.125 30 43.125C31.035 43.125 31.875 42.2813 31.875 41.25V31.875H41.25C42.285 31.875 43.125 31.0313 43.125 30C43.125 28.9687 42.285 28.125 41.25 28.125Z" fill="white"/>
</svg>
