<svg width="196" height="196" viewBox="0 0 196 196" fill="none" xmlns="http://www.w3.org/2000/svg">
<rect width="196" height="196" fill="#11101B"/>
<path d="M152 127H155V121H152V127ZM130.931 113.565V116.565C132.588 116.565 133.931 115.222 133.931 113.565H130.931ZM109.31 113.565H106.31C106.31 115.222 107.653 116.565 109.31 116.565V113.565ZM109.31 97.2609V94.2609C107.653 94.2609 106.31 95.604 106.31 97.2609H109.31ZM130.931 97.2609H133.931C133.931 95.604 132.588 94.2609 130.931 94.2609V97.2609ZM45 121H42V127H45V121ZM77.2069 51.9349V48.9349C75.55 48.9349 74.2069 50.278 74.2069 51.9349H77.2069ZM99.4828 111.348C101.14 111.348 102.483 110.005 102.483 108.348C102.483 106.691 101.14 105.348 99.4828 105.348V111.348ZM92.8793 114.217C92.8793 115.874 94.2225 117.217 95.8793 117.217C97.5362 117.217 98.8793 115.874 98.8793 114.217H92.8793ZM99.4828 92.4348C101.14 92.4348 102.483 91.0917 102.483 89.4348C102.483 87.778 101.14 86.4348 99.4828 86.4348V92.4348ZM92.8793 95.3044C92.8793 96.9612 94.2225 98.3044 95.8793 98.3044C97.5362 98.3044 98.8793 96.9612 98.8793 95.3044H92.8793ZM99.4828 73.5218C101.14 73.5218 102.483 72.1786 102.483 70.5218C102.483 68.8649 101.14 67.5218 99.4828 67.5218V73.5218ZM92.8793 76.3913C92.8793 78.0482 94.2225 79.3913 95.8793 79.3913C97.5362 79.3913 98.8793 78.0482 98.8793 76.3913H92.8793ZM123.017 97.2609C123.017 98.9177 124.36 100.261 126.017 100.261C127.674 100.261 129.017 98.9177 129.017 97.2609H123.017ZM110.897 97.2609C110.897 98.9177 112.24 100.261 113.897 100.261C115.553 100.261 116.897 98.9177 116.897 97.2609L110.897 97.2609ZM119.957 52.2608H116.957C116.957 53.9177 118.3 55.2608 119.957 55.2608V52.2608ZM122.957 41.8261C122.957 40.1692 121.614 38.8261 119.957 38.8261C118.3 38.8261 116.957 40.1692 116.957 41.8261H122.957ZM127.655 55.2608C129.312 55.2608 130.655 53.9177 130.655 52.2608C130.655 50.604 129.312 49.2608 127.655 49.2608V55.2608ZM120.448 127H152V121H120.448V127ZM123.448 124V113.565H117.448V124H123.448ZM120.448 116.565H130.931V110.565H120.448V116.565ZM120.448 110.565H109.31V116.565H120.448V110.565ZM112.31 113.565V97.2609H106.31V113.565H112.31ZM127.931 97.2609V113.565H133.931V97.2609H127.931ZM122.957 86.8261V70.5218H116.957V86.8261H122.957ZM45 127H77.2069V121H45V127ZM77.2069 127H120.448V121H77.2069V127ZM77.2069 54.9349H101.593V48.9349H77.2069V54.9349ZM83.7586 111.348H95.8793V105.348H83.7586V111.348ZM95.8793 111.348H99.4828V105.348H95.8793V111.348ZM92.8793 108.348V114.217H98.8793V108.348H92.8793ZM80.7586 108.348C80.7586 110.28 79.1815 111.87 77.2069 111.87V117.87C82.4692 117.87 86.7586 113.62 86.7586 108.348H80.7586ZM77.2069 111.87C75.2323 111.87 73.6552 110.28 73.6552 108.348H67.6552C67.6552 113.62 71.9446 117.87 77.2069 117.87V111.87ZM73.6552 108.348C73.6552 106.416 75.2323 104.826 77.2069 104.826V98.8261C71.9446 98.8261 67.6552 103.076 67.6552 108.348H73.6552ZM77.2069 104.826C79.1814 104.826 80.7586 106.416 80.7586 108.348H86.7586C86.7586 103.076 82.4692 98.8261 77.2069 98.8261V104.826ZM83.7586 92.4348H95.8793V86.4348H83.7586V92.4348ZM95.8793 92.4348H99.4828V86.4348H95.8793V92.4348ZM92.8793 89.4348V95.3044H98.8793V89.4348H92.8793ZM80.7586 89.4348C80.7586 91.3668 79.1815 92.9565 77.2069 92.9565V98.9565C82.4692 98.9565 86.7586 94.7065 86.7586 89.4348H80.7586ZM77.2069 92.9565C75.2323 92.9565 73.6552 91.3668 73.6552 89.4348H67.6552C67.6552 94.7065 71.9446 98.9565 77.2069 98.9565V92.9565ZM73.6552 89.4348C73.6552 87.5028 75.2323 85.9131 77.2069 85.9131V79.9131C71.9446 79.9131 67.6552 84.1631 67.6552 89.4348H73.6552ZM77.2069 85.9131C79.1815 85.9131 80.7586 87.5028 80.7586 89.4348H86.7586C86.7586 84.1631 82.4692 79.9131 77.2069 79.9131V85.9131ZM83.7586 73.5218H95.8793V67.5218H83.7586V73.5218ZM95.8793 73.5218H99.4828V67.5218H95.8793V73.5218ZM92.8793 70.5218V76.3913H98.8793V70.5218H92.8793ZM80.7586 70.5218C80.7586 72.4538 79.1815 74.0435 77.2069 74.0435V80.0435C82.4692 80.0435 86.7586 75.7935 86.7586 70.5218H80.7586ZM77.2069 74.0435C75.2323 74.0435 73.6552 72.4538 73.6552 70.5218H67.6552C67.6552 75.7935 71.9446 80.0435 77.2069 80.0435V74.0435ZM73.6552 70.5218C73.6552 68.5898 75.2323 67.0001 77.2069 67.0001V61.0001C71.9446 61.0001 67.6552 65.2501 67.6552 70.5218H73.6552ZM77.2069 67.0001C79.1815 67.0001 80.7586 68.5898 80.7586 70.5218H86.7586C86.7586 65.2501 82.4692 61.0001 77.2069 61.0001V67.0001ZM80.2069 64.0001V51.9349H74.2069V64.0001H80.2069ZM80.2069 82.9131V77.0435H74.2069V82.9131H80.2069ZM80.2069 101.826V95.9565H74.2069V101.826H80.2069ZM74.2069 114.87V124H80.2069V114.87H74.2069ZM109.31 100.261H130.931V94.2609H109.31V100.261ZM129.017 97.2609C129.017 96.7293 129.018 95.5766 128.978 94.4239C128.958 93.8491 128.926 93.2412 128.875 92.691C128.83 92.2116 128.751 91.5349 128.568 90.954L122.847 92.7632C122.82 92.6768 122.858 92.7888 122.901 93.2478C122.937 93.636 122.963 94.1162 122.981 94.6345C123.018 95.668 123.017 96.722 123.017 97.2609H129.017ZM128.568 90.954C128.16 89.6639 127.549 88.4494 126.742 87.3933L121.974 91.0344C122.323 91.4923 122.629 92.0752 122.847 92.7632L128.568 90.954ZM126.742 87.3933C125.936 86.3367 124.935 85.4422 123.769 84.8097L120.908 90.0836C121.253 90.2705 121.624 90.577 121.974 91.0344L126.742 87.3933ZM123.769 84.8097C122.598 84.1744 121.3 83.8261 119.957 83.8261L119.957 89.8261C120.249 89.8261 120.569 89.8996 120.908 90.0836L123.769 84.8097ZM119.957 83.8261C118.614 83.8261 117.316 84.1744 116.144 84.8097L119.006 90.0836C119.345 89.8996 119.665 89.8261 119.957 89.8261L119.957 83.8261ZM116.144 84.8097C114.979 85.4422 113.978 86.3367 113.171 87.3933L117.94 91.0344C118.289 90.577 118.661 90.2705 119.006 90.0836L116.144 84.8097ZM113.171 87.3933C112.365 88.4494 111.754 89.6639 111.346 90.954L117.067 92.7632C117.285 92.0751 117.591 91.4923 117.94 91.0344L113.171 87.3933ZM111.346 90.954C111.162 91.5349 111.084 92.2116 111.039 92.691C110.988 93.2412 110.956 93.8491 110.936 94.4239C110.896 95.5766 110.897 96.7293 110.897 97.2609L116.897 97.2609C116.897 96.722 116.896 95.668 116.932 94.6345C116.951 94.1162 116.977 93.636 117.013 93.2478C117.056 92.7888 117.094 92.6768 117.067 92.7632L111.346 90.954ZM135.302 52.2608C135.302 60.6762 128.445 67.5218 119.957 67.5218V73.5218C131.732 73.5218 141.302 64.0158 141.302 52.2608H135.302ZM119.957 67.5218C111.534 67.5218 104.593 60.4153 104.593 51.9349H98.5928C98.5928 63.6248 108.117 73.5218 119.957 73.5218V67.5218ZM104.593 51.9349C104.593 43.5935 111.394 37 119.957 37V31C108.257 31 98.5928 40.1058 98.5928 51.9349H104.593ZM119.957 37C128.445 37 135.302 43.8455 135.302 52.2608H141.302C141.302 40.5058 131.732 31 119.957 31V37ZM122.957 52.2608V41.8261H116.957V52.2608H122.957ZM119.957 55.2608H127.655V49.2608H119.957V55.2608Z" fill="#BF9A7C"/>
<path d="M14 139H32M23 144V158M35 139C35 139 43.5 139 47 139C50.5 139 48 147 48 147M48 147C48 147 52 147 52 151C52 155 48 155 48 155H38V147H48ZM88.8984 141.442C87.2099 139.469 83.8586 139 81 139C75.916 139 73 142.593 73 147.5C73 152.407 75.9789 155 81 155C86.8195 155 88.4715 152.992 88.8799 152.262C88.9735 152.094 89 151.903 89 151.711V148M107 139L98 155V158M107 139L116 155V158M107 139V136M125 158V140.038M125 136V140.038M144 136V140.038M144 158V140.038M144 140.038L134.5 153M134.5 153L125 140.038M134.5 153V156M150 139H165.063M150 147H163.5M150 155H165.063M183 139H174C171.791 139 170 140.791 170 143V143C170 145.209 171.791 147 174 147H177C179.209 147 181 148.791 181 151V151C181 153.209 179.209 155 177 155H168" stroke="white" stroke-width="6"/>
</svg>
