<svg width="95" height="82" viewBox="0 0 95 82" fill="none" xmlns="http://www.w3.org/2000/svg">
<g clip-path="url(#clip0_10_33)">
<path d="M0.849002 12.3025V0.0996094H48.8888V12.3025H32.2638V55.8842H17.474V12.3025H0.849002ZM48.4562 55.8842V0.0996094H72.422C76.6322 0.0996094 80.1679 0.671619 83.0286 1.81564C85.9073 2.95967 88.0755 4.57582 89.5329 6.66409C91.0082 8.75239 91.7459 11.2129 91.7459 14.0458C91.7459 16.0977 91.2961 17.9681 90.3966 19.657C89.5148 21.3457 88.2734 22.762 86.672 23.9062C85.0708 25.0319 83.1996 25.8128 81.0583 26.2486V26.7934C83.4333 26.8841 85.5925 27.4925 87.5357 28.6184C89.479 29.726 91.0263 31.2604 92.1777 33.2217C93.3293 35.1647 93.905 37.4528 93.905 40.0858C93.905 43.1366 93.1134 45.8513 91.5301 48.2301C89.9646 50.609 87.7337 52.4794 84.8368 53.8413C81.9401 55.2032 78.4856 55.8842 74.4731 55.8842H48.4562ZM63.4618 43.7902H70.479C72.9978 43.7902 74.887 43.3181 76.1466 42.3739C77.406 41.4115 78.0357 39.995 78.0357 38.1247C78.0357 36.8173 77.7388 35.7094 77.1451 34.8016C76.5514 33.8936 75.7056 33.2036 74.6081 32.7313C73.5286 32.2592 72.2241 32.0233 70.6948 32.0233H63.4618V43.7902ZM63.4618 22.6532H69.6153C70.9286 22.6532 72.0893 22.4443 73.0968 22.0266C74.1043 21.6089 74.887 21.0097 75.4448 20.229C76.0206 19.43 76.3083 18.4584 76.3083 17.3144C76.3083 15.5893 75.6967 14.2727 74.4731 13.3648C73.2497 12.4387 71.7024 11.9756 69.8312 11.9756H63.4618V22.6532ZM14.0793 67.2201C13.9891 66.8488 13.8468 66.5232 13.6525 66.243C13.4582 65.9557 13.2153 65.7141 12.9238 65.518C12.6393 65.3149 12.3061 65.1644 11.9244 65.0664C11.5497 64.9612 11.1367 64.9087 10.6857 64.9087C9.71407 64.9087 8.88474 65.1434 8.19769 65.6126C7.51758 66.0819 6.99708 66.7579 6.63619 67.6403C6.28227 68.523 6.1053 69.5875 6.1053 70.8343C6.1053 72.095 6.27532 73.1736 6.61538 74.0703C6.95543 74.9668 7.46206 75.6531 8.13522 76.1294C8.8084 76.6057 9.64465 76.8439 10.644 76.8439C11.5254 76.8439 12.2576 76.7144 12.8405 76.455C13.4304 76.1959 13.8711 75.8283 14.1626 75.352C14.454 74.8757 14.5998 74.3154 14.5998 73.6709L15.5991 73.7761H10.7273V69.6156H20.1794V72.5994C20.1794 74.5605 19.7665 76.2381 18.9406 77.6319C18.1218 79.0186 16.9906 80.0833 15.5471 80.8257C14.1105 81.5611 12.4623 81.9289 10.6024 81.9289C8.52733 81.9289 6.70561 81.4841 5.13717 80.5947C3.56874 79.7051 2.34386 78.4373 1.46248 76.7913C0.588046 75.1454 0.150829 73.1876 0.150829 70.9183C0.150829 69.1393 0.418017 67.5632 0.952391 66.1904C1.49371 64.8176 2.24321 63.6585 3.20094 62.7128C4.15865 61.7602 5.26557 61.0423 6.52169 60.5591C7.77782 60.0687 9.12416 59.8237 10.5607 59.8237C11.8238 59.8237 12.9967 60.0057 14.0793 60.3699C15.1689 60.7271 16.13 61.2385 16.9628 61.904C17.8025 62.5623 18.4792 63.3433 18.9928 64.2467C19.5063 65.1504 19.8186 66.1415 19.9297 67.2201H14.0793ZM25.9513 81.8869C24.9311 81.8869 24.0288 81.7187 23.2446 81.3825C22.4674 81.0394 21.8567 80.5211 21.4125 79.8276C20.9684 79.1342 20.7464 78.2517 20.7464 77.1801C20.7464 76.2976 20.8955 75.5446 21.1939 74.9212C21.4923 74.2909 21.9088 73.7761 22.4432 73.3768C22.9775 72.9776 23.5985 72.6728 24.3064 72.4628C25.0214 72.2526 25.7917 72.116 26.6175 72.053C27.5127 71.983 28.2311 71.8988 28.7723 71.8008C29.3206 71.6958 29.7162 71.5522 29.959 71.3701C30.202 71.1809 30.3235 70.9324 30.3235 70.6241V70.5821C30.3235 70.1619 30.1639 69.8397 29.8445 69.6156C29.5253 69.3913 29.1158 69.2794 28.6162 69.2794C28.0679 69.2794 27.6204 69.4019 27.2733 69.647C26.9333 69.8852 26.7285 70.253 26.6592 70.7503H21.3708C21.4403 69.7696 21.7492 68.8661 22.2973 68.0395C22.8527 67.206 23.6611 66.5407 24.7228 66.0434C25.7846 65.539 27.1103 65.287 28.6994 65.287C29.8445 65.287 30.8717 65.4236 31.7808 65.6966C32.6899 65.9629 33.4637 66.3376 34.1023 66.8209C34.7407 67.2972 35.2265 67.8575 35.5597 68.5018C35.8997 69.1393 36.0696 69.8326 36.0696 70.5821V81.6347H30.6982V79.3654H30.5732C30.254 79.9677 29.8653 80.4546 29.4073 80.8257C28.9562 81.197 28.4392 81.4667 27.8563 81.6347C27.2802 81.8027 26.6452 81.8869 25.9513 81.8869ZM27.825 78.2307C28.2622 78.2307 28.6717 78.1396 29.0533 77.9575C29.442 77.7754 29.7578 77.5128 30.0006 77.1695C30.2437 76.8263 30.3651 76.4096 30.3651 75.9194V74.5745C30.2123 74.6375 30.0493 74.6971 29.8758 74.7531C29.7093 74.8092 29.5287 74.8616 29.3345 74.9107C29.1471 74.9597 28.9459 75.0053 28.7307 75.0473C28.5224 75.0893 28.3038 75.1279 28.0749 75.1628C27.6307 75.2329 27.2664 75.3485 26.9818 75.5096C26.7042 75.6637 26.4959 75.8562 26.3572 76.0874C26.2254 76.3115 26.1594 76.5637 26.1594 76.8439C26.1594 77.2922 26.3155 77.6354 26.6279 77.8735C26.9402 78.1117 27.3392 78.2307 27.825 78.2307ZM37.3497 81.6347V65.497H42.8043V68.565H42.9709C43.3041 67.5563 43.8732 66.7579 44.6782 66.1694C45.4831 65.5812 46.4409 65.287 47.5512 65.287C48.6755 65.287 49.6437 65.5881 50.4557 66.1904C51.2676 66.7858 51.7569 67.5773 51.9234 68.565H52.09C52.3607 67.5773 52.9367 66.7858 53.818 66.1904C54.6994 65.5881 55.7335 65.287 56.9202 65.287C58.4539 65.287 59.6962 65.7843 60.6469 66.7789C61.6047 67.7734 62.0835 69.0971 62.0835 70.7503V81.6347H56.3372V72.2212C56.3372 71.5137 56.1602 70.9603 55.8063 70.5611C55.4523 70.1549 54.977 69.9517 54.3802 69.9517C53.7903 69.9517 53.3218 70.1549 52.9749 70.5611C52.6347 70.9603 52.4648 71.5137 52.4648 72.2212V81.6347H46.9684V72.2212C46.9684 71.5137 46.7914 70.9603 46.4374 70.5611C46.0835 70.1549 45.6081 69.9517 45.0112 69.9517C44.6156 69.9517 44.2756 70.0428 43.9911 70.2249C43.7065 70.4069 43.4845 70.6697 43.3249 71.0129C43.1722 71.3491 43.0958 71.7518 43.0958 72.2212V81.6347H37.3497ZM71.1136 81.9289C69.4063 81.9289 67.9351 81.5997 66.6998 80.9413C65.4715 80.276 64.5242 79.3234 63.8579 78.0835C63.1985 76.8369 62.869 75.345 62.869 73.6079C62.869 71.9408 63.202 70.484 63.8682 69.2372C64.5345 67.9906 65.4749 67.0205 66.6895 66.327C67.9038 65.6336 69.337 65.287 70.9887 65.287C72.1962 65.287 73.2893 65.476 74.2677 65.8542C75.2463 66.2324 76.0825 66.7823 76.7766 67.5037C77.4706 68.2181 78.0049 69.0867 78.3797 70.1093C78.7545 71.132 78.9417 72.2842 78.9417 73.5659V74.9107H64.6594V71.7168H73.6536C73.6467 71.2545 73.5287 70.8482 73.2996 70.4981C73.0776 70.1409 72.7756 69.8642 72.394 69.668C72.0192 69.465 71.5924 69.3634 71.1136 69.3634C70.6485 69.3634 70.2218 69.465 69.8331 69.668C69.4445 69.8642 69.1323 70.1374 68.8964 70.4875C68.6673 70.8378 68.5458 71.2476 68.5319 71.7168V75.1628C68.5319 75.6812 68.6394 76.1435 68.8545 76.5496C69.0697 76.956 69.3786 77.2747 69.781 77.5057C70.1836 77.7369 70.6695 77.8525 71.2384 77.8525C71.6342 77.8525 71.995 77.7964 72.3211 77.6843C72.6542 77.5724 72.9388 77.4113 73.1748 77.2011C73.4107 76.9839 73.5841 76.7248 73.6952 76.4236H78.9417C78.7613 77.5442 78.3346 78.5178 77.6613 79.3444C76.9882 80.1638 76.0964 80.8012 74.9861 81.2565C73.8827 81.7049 72.5918 81.9289 71.1136 81.9289ZM94.4365 70.7503H89.1482C89.1205 70.421 89.0059 70.1374 88.8047 69.8992C88.6035 69.6611 88.3431 69.479 88.0239 69.3528C87.7116 69.2199 87.3647 69.1532 86.9829 69.1532C86.4902 69.1532 86.0669 69.2443 85.713 69.4264C85.359 69.6085 85.1855 69.8676 85.1924 70.2039C85.1855 70.442 85.2861 70.6626 85.4944 70.8657C85.7095 71.069 86.1225 71.2266 86.7332 71.3385L89.9809 71.927C91.6189 72.2281 92.8367 72.7358 93.6349 73.4503C94.4399 74.1578 94.8458 75.1069 94.8529 76.2976C94.8458 77.4462 94.5058 78.4444 93.8327 79.2918C93.1664 80.1323 92.2539 80.7837 91.0949 81.2459C89.9429 81.7012 88.6278 81.9289 87.1496 81.9289C84.7067 81.9289 82.7948 81.4245 81.4137 80.4161C80.0396 79.4074 79.2727 78.0766 79.1131 76.4236H84.8176C84.894 76.935 85.1439 77.3307 85.5671 77.6109C85.9974 77.8839 86.5388 78.0205 87.1912 78.0205C87.7187 78.0205 88.1524 77.9296 88.4924 77.7473C88.8393 77.5652 89.0163 77.3061 89.0233 76.9699C89.0163 76.6618 88.8637 76.4167 88.5653 76.2344C88.2738 76.0523 87.8158 75.9053 87.1912 75.7932L84.3596 75.289C82.7287 75.0017 81.5073 74.4554 80.6953 73.6499C79.8834 72.8445 79.4808 71.8079 79.4879 70.5401C79.4808 69.4195 79.7723 68.4704 80.3622 67.6929C80.959 66.9083 81.8093 66.313 82.9127 65.9068C84.0231 65.4935 85.3382 65.287 86.858 65.287C89.169 65.287 90.9908 65.7702 92.3232 66.7368C93.6626 67.7033 94.367 69.0413 94.4365 70.7503Z" fill="white"/>
</g>
<defs>
<clipPath id="clip0_10_33">
<rect width="95" height="82" fill="white"/>
</clipPath>
</defs>
</svg>
