<svg width="256" height="256" viewBox="0 0 256 256" fill="none" xmlns="http://www.w3.org/2000/svg">
<path fill-rule="evenodd" clip-rule="evenodd" d="M256 128C256 198.692 198.692 256 128 256C57.3075 256 0 198.692 0 128C0 57.3075 57.3075 0 128 0C198.692 0 256 57.3075 256 128ZM128 115C148.987 115 166 97.9868 166 77C166 56.0132 148.987 39 128 39C107.013 39 90 56.0132 90 77C90 97.9868 107.013 115 128 115ZM127.5 220.5C74 220.5 51 179 51 179C51 179 54 140.5 128 139.5C205 140.5 205 179 205 179C205 179 181 220.5 127.5 220.5Z" fill="#BF9A7C"/>
</svg>
